<svg width="120" height="120" viewBox="0 0 120 120" fill="none" xmlns="http://www.w3.org/2000/svg">
<path fill-rule="evenodd" clip-rule="evenodd" d="M120 0H0V120H120V0ZM55.1865 89.9416L48.0375 87.8672C47.2875 87.6562 46.8656 86.871 47.0765 86.121L63.0738 31.0153C63.2848 30.2652 64.07 29.8433 64.82 30.0542L71.969 32.1286C72.7191 32.3396 73.141 33.1248 72.93 33.8748L56.9327 88.9806C56.7101 89.7306 55.9366 90.1642 55.1865 89.9416ZM37.2969 77.5329L42.6199 71.8551C43.1827 71.2555 43.146 70.301 42.522 69.7504L31.4356 59.9978L42.522 50.2452C43.146 49.6946 43.195 48.7401 42.6199 48.1405L37.2969 42.4627C36.7463 41.8754 35.8163 41.8386 35.2167 42.4015L17.5837 58.921C16.9596 59.4961 16.9596 60.4873 17.5837 61.0624L35.2167 77.5941C35.8163 78.157 36.7463 78.1325 37.2969 77.5329ZM84.7879 77.6047L102.416 61.0772C103.04 60.5023 103.04 59.5113 102.416 58.9364L84.7879 42.3967C84.2006 41.8462 83.2709 41.8706 82.7082 42.4578L77.3866 48.1342C76.8238 48.7336 76.8605 49.6878 77.4845 50.2383L88.568 60.0007L77.4845 69.7508C76.8605 70.3013 76.8116 71.2555 77.3866 71.8549L82.7082 77.5313C83.2587 78.1307 84.1884 78.1552 84.7879 77.6047Z" fill="black"/>
</svg>
